<svg xmlns="http://www.w3.org/2000/svg" viewBox="0 0 512 512">
  <defs>
    <linearGradient id="grad1" x1="0%" y1="0%" x2="100%" y2="100%">
      <stop offset="0%" style="stop-color:#8e2de2;stop-opacity:1" />
      <stop offset="100%" style="stop-color:#4a00e0;stop-opacity:1" />
    </linearGradient>
  </defs>
  <path fill="url(#grad1)" d="M256 0C114.6 0 0 114.6 0 256s114.6 256 256 256 256-114.6 256-256S397.4 0 256 0z"/>
  <path fill="#ffffff" d="M256 64c-74.5 0-140.7 43.1-171.2 104.9-6 12.1-1.1 26.8 11 32.8s26.8 1.1 32.8-11C150.3 148.6 199.7 112 256 112s105.7 36.6 127.4 78.7c6 12.1 20.7 17 32.8 11s17-20.7 11-32.8C396.7 107.1 330.5 64 256 64zM128 256c0-25.3 15.6-47 38-56.9 3.5-1.5 7.4-2.4 11.4-2.4 17.7 0 32 14.3 32 32 0 4.6-1 8.9-2.8 12.8-4.4 9.4-3.1 20.8 3.5 28.9l56.8 69.9c5.6 6.9 15.5 8.1 22.4 2.8s8.1-15.5 2.8-22.4l-31.5-38.7c-4.4-5.4-5.4-12.8-2.6-19.2 5.1-11.7 1.8-25.7-8.3-33.8-10.1-8.1-24.8-6.9-33.6 2.8l-1.6 1.7c-12.4 13.5-33.7 13.6-46.3.1-12.7-13.6-12.6-35.1 0-48.7 12.6-13.6 33.2-13.6 45.8 0l1.6 1.7c8.8 9.6 23.4 10.9 33.6 2.8 10.1-8.1 13.4-22.1 8.3-33.8-2.8-6.4-1.8-13.8 2.6-19.2l31.5-38.7c5.4-6.6 15.2-7.8 22.1-2.5s8.1 15.3 2.8 21.9l-56.8 69.9c-6.6 8.1-7.9 19.5-3.5 28.9 1.8 3.9 2.8 8.2 2.8 12.8 0 17.7-14.3 32-32 32-4 0-7.9-.9-11.4-2.4-22.4-9.9-38-31.6-38-56.9z" transform="translate(64, 64) scale(0.75)"/>
  <path fill="#ffffff" d="M256 120c-75 0-135.8 60.8-135.8 135.8 0 75 60.8 135.8 135.8 135.8s135.8-60.8 135.8-135.8C391.8 180.8 331 120 256 120zm0 231.6c-52.9 0-95.8-42.9-95.8-95.8 0-52.9 42.9-95.8 95.8-95.8s95.8 42.9 95.8 95.8c0 52.9-42.9 95.8-95.8 95.8z" />
  <path fill="#ffffff" d="M256 180c-42 0-76 34-76 76s34 76 76 76 76-34 76-76-34-76-76-76zm0 112c-19.9 0-36-16.1-36-36s16.1-36 36-36 36 16.1 36 36-16.1 36-36 36z" />
</svg>